<svg width="40" height="40" viewBox="0 0 40 40" fill="none" xmlns="http://www.w3.org/2000/svg">
<path d="M29.3275 15.3863C29.2802 15.272 29.2001 15.1744 29.0973 15.1057C28.9946 15.037 28.8737 15.0003 28.7501 15.0003H26.3728C26.0404 14.4348 25.5673 13.965 24.9996 13.6364C24.4319 13.3079 23.7888 13.1318 23.1329 13.1253C22.6443 13.1189 22.1593 13.2103 21.7064 13.3941C21.2536 13.5779 20.8422 13.8504 20.4962 14.1956C20.1402 14.545 19.8576 14.9621 19.6651 15.4223C19.4725 15.8824 19.374 16.3765 19.3751 16.8753V17.3511C16.2298 16.5214 13.6572 13.9628 13.6298 13.9355C13.546 13.8509 13.4397 13.792 13.3235 13.7658C13.2073 13.7396 13.086 13.7471 12.974 13.7875C12.8619 13.8279 12.7638 13.8994 12.691 13.9938C12.6183 14.0881 12.574 14.2012 12.5634 14.3198C12.2267 18.0534 13.3111 20.5519 14.2822 21.9902C14.7557 22.7012 15.3317 23.3383 15.9915 23.8808C14.8017 25.2503 12.9282 25.9698 12.9079 25.9777C12.8197 26.0107 12.7402 26.0632 12.6751 26.1313C12.6101 26.1995 12.5613 26.2814 12.5324 26.371C12.5034 26.4606 12.4951 26.5556 12.5081 26.6489C12.521 26.7422 12.5549 26.8313 12.6072 26.9097C12.6657 26.9972 12.9001 27.3042 13.4728 27.5909C14.1806 27.9456 15.1157 28.1253 16.2501 28.1253C21.7712 28.1253 26.3845 23.8738 26.8556 18.4034L29.1923 16.0675C29.2797 15.98 29.3392 15.8686 29.3632 15.7474C29.3873 15.6261 29.3748 15.5004 29.3275 15.3863ZM25.8118 17.6839C25.7047 17.7913 25.6403 17.9341 25.6306 18.0855C25.3126 23.0144 21.1939 26.8753 16.2501 26.8753C15.4251 26.8753 14.8439 26.7659 14.4361 26.6347C15.3353 26.1464 16.5892 25.3066 17.3954 24.0972C17.4428 24.0261 17.475 23.946 17.4902 23.862C17.5053 23.7779 17.5031 23.6916 17.4836 23.6085C17.4642 23.5253 17.4279 23.447 17.3769 23.3784C17.326 23.3098 17.2616 23.2524 17.1876 23.2097C17.1509 23.1886 13.7572 21.1519 13.7501 15.7097C15.0001 16.7253 17.2853 18.3011 19.8962 18.7402C19.9857 18.7552 20.0774 18.7507 20.1649 18.7267C20.2525 18.7028 20.3337 18.6601 20.4031 18.6016C20.4725 18.5431 20.5283 18.4702 20.5666 18.3879C20.6049 18.3057 20.6249 18.2161 20.6251 18.1253V16.8753C20.6244 16.5419 20.6904 16.2117 20.8192 15.9042C20.948 15.5967 21.137 15.3181 21.3751 15.0847C21.6034 14.856 21.8751 14.6754 22.1744 14.5536C22.4736 14.4317 22.7942 14.3711 23.1173 14.3753C24.1064 14.3878 25.0306 14.9909 25.4173 15.8761C25.4661 15.9874 25.5462 16.082 25.6479 16.1485C25.7496 16.215 25.8685 16.2503 25.99 16.2503H27.24L25.8118 17.6839Z" fill="white"/>
<circle cx="20" cy="20" r="19.5" stroke="white"/>
<circle cx="20" cy="20" r="19.5" stroke="white"/>
<circle cx="20" cy="20" r="19.5" stroke="white"/>
</svg>
